<svg xmlns="http://www.w3.org/2000/svg" width="800" height="800" fill="none" viewBox="0 0 24 24"><path fill="#000" fill-rule="evenodd" d="M22 12c0 5.5228-4.4772 10-10 10-5.52285 0-10-4.4772-10-10C2 6.47715 6.47715 2 12 2c5.5228 0 10 4.47715 10 10Zm-9.6417-2.61756c-.9726.40456-2.91653 1.24186-5.83173 2.51196-.47339.1883-.72137.3725-.74394.5525-.03815.3044.34296.4242.86192.5874.0706.0222.14374.0452.21872.0695.51058.166 1.19741.3602 1.55446.3679.32388.007.68537-.1265 1.08446-.4006 2.72381-1.8386 4.12981-2.7679 4.21801-2.788.0623-.0141.1486-.0319.2071.0201.0585.052.0527.1504.0465.1768-.0377.161-1.5337 1.5518-2.3079 2.2715-.2413.2244-.4125.3835-.4475.4199-.0784.0814-.1583.1584-.2351.2324-.4743.4573-.8301.8002.0197 1.3602.4084.2691.7351.4916 1.0611.7136.356.2425.7111.4843 1.1706.7855.117.0767.2288.1564.3377.234.4143.2954.7865.5608 1.2464.5184.2672-.0245.5432-.2758.6834-1.0252.3313-1.771.9825-5.6083 1.133-7.18949.0132-.13853-.0034-.31583-.0167-.39366-.0134-.07783-.0412-.18873-.1424-.27082-.1198-.09722-.3047-.11772-.3875-.11633-.3761.0067-.9532.20735-3.7303 1.36244Z" clip-rule="evenodd"/></svg>